<svg width="39" height="56" viewBox="0 0 39 56" fill="black" xmlns="http://www.w3.org/2000/svg">
<g id="Frame 1820547719" opacity="0.1">
<path id="Vector" d="M22.4626 50.2139C21.7363 51.1442 21.2179 52.2951 20.2692 52.6994C10.6614 56.7936 0.958503 56.7949 -8.71625 52.8267C-10.8079 51.9687 -11.4953 50.2256 -10.5461 48.6534C-9.59906 47.0845 -7.60061 46.5559 -5.54218 47.388C1.98692 50.4316 9.49398 50.4296 17.0098 47.349C19.9024 46.1634 22.2001 47.3336 22.4626 50.2139Z" fill="#0E0E0C"/>
<path id="Vector_2" d="M0.343147 0.46282C7.28377 -0.451839 13.7855 0.319439 19.9591 2.93479C22.3233 3.93633 23.1337 5.56025 22.1789 7.23005C21.2172 8.91186 19.2155 9.36405 16.901 8.42817C9.44837 5.41463 1.993 5.39529 -5.47148 8.40418C-7.62194 9.27102 -9.67321 8.70393 -10.5713 7.02536C-11.4118 5.45425 -10.6749 3.67011 -8.51376 2.93819C-5.67789 1.97777 -2.71805 1.28795 0.343147 0.46282Z" fill="#0E0E0C"/>
<path id="Vector_3" d="M30.6396 24.5741C29.8689 22.4168 29.234 20.3557 28.3543 18.3749C27.4903 16.4292 27.9529 14.7584 29.8679 13.9371C31.732 13.1376 33.7285 13.8235 34.7736 15.7482C39.1648 23.8346 39.1782 31.9466 34.8038 40.0415C33.7576 41.9775 31.7935 42.6709 29.919 41.8855C27.9319 41.0529 27.3552 39.3286 28.4623 37.3333C30.693 33.3129 31.3841 29.1022 30.6396 24.5741Z" fill="#0E0E0D"/>
<path id="Vector_4" d="M-6.43692 12.4296C-3.54888 14.9142 -0.734781 17.3099 2.04609 19.7337C4.0603 21.4894 4.05152 23.0656 2.08582 24.7473C0.246429 26.321 -1.65414 26.2945 -3.61954 24.6131C-8.1025 20.7777 -12.5752 16.9334 -17.0303 13.0741C-18.9651 11.3981 -18.9661 9.76159 -17.1123 8.16506C-15.17 6.4922 -13.3288 6.51487 -11.2869 8.25397C-9.69131 9.61297 -8.11177 10.9859 -6.43692 12.4296Z" fill="#0E0E0C"/>
<path id="Vector_5" d="M-9.02781 45.5659C-10.0383 46.4304 -10.9211 47.2562 -11.8909 47.9977C-13.5236 49.2461 -15.4099 49.1048 -17.0776 47.6747C-18.766 46.2269 -19.0346 44.5525 -17.5256 43.2258C-12.7755 39.0497 -7.96997 34.9193 -3.12307 30.8262C-1.55638 29.5032 0.552464 29.7281 2.20251 31.201C3.87042 32.6898 3.97521 34.3385 2.33027 35.7801C-1.39379 39.0439 -5.17893 42.2562 -9.02781 45.5659Z" fill="#0E0E0C"/>
<path id="Vector_6" d="M27.6482 41.7648C28.0747 42.1264 28.4169 42.4075 28.7425 42.7022C30.5188 44.31 30.4919 45.9103 28.6674 47.5007C26.8383 49.0951 24.942 49.1622 23.1014 47.5953C18.564 43.7327 14.0462 39.8528 9.56052 35.9459C7.66169 34.2921 7.75487 32.6857 9.70037 31.0473C11.5088 29.5243 13.4194 29.5263 15.2758 31.1147C19.3826 34.6286 23.4644 38.164 27.6482 41.7648Z" fill="#0E0E0C"/>
<path id="Vector_7" d="M29.3347 12.5211C24.54 16.6762 19.8462 20.7604 15.1096 24.8077C13.3596 26.3031 11.4218 26.2294 9.65746 24.7172C7.86133 23.1778 7.71474 21.5232 9.42609 20.0309C14.0319 16.0146 18.6807 12.0343 23.3492 8.07178C24.738 6.89295 26.5168 6.8467 28.0087 7.80599C30.048 9.11728 30.4619 10.4765 29.3347 12.5211Z" fill="#0E0E0D"/>
<path id="Vector_8" d="M1.7967 28.701C1.6882 26.6338 2.74063 25.1299 4.66397 24.507C6.49059 23.9154 7.85167 24.5947 9.02803 25.7434C10.5704 27.2496 10.4168 28.9123 8.58454 30.4296C6.8937 31.8298 4.89737 31.8898 3.2748 30.5127C2.70255 30.027 2.30438 29.3896 1.7967 28.701Z" fill="#10100E"/>
</g>
</svg>
